<svg xmlns="http://www.w3.org/2000/svg" width="88" height="88" viewBox="0 0 88 88" fill="none"><script xmlns="" id="eppiocemhmnlbhjplcgkofciiegomcon"/><script xmlns=""/><script xmlns=""/>
    <path d="M44 88C68.31 88 88 68.31 88 44C88 19.69 68.31 0 44 0C19.69 0 0 19.69 0 44C0 68.31 19.69 88 44 88Z" fill="#F0BE5F"/>
    <g clip-path="url(#clip0)">
        <path fill-rule="evenodd" clip-rule="evenodd" d="M44.5898 41.8199C44.5898 37.8757 46.4234 35.6158 48.6833 34.0594C50.6234 32.7163 56.9128 29.9873 58.0001 26.4056V27.6635V33.8249C58.0001 37.6412 56.0386 39.7945 54.1198 41.0737C53.331 41.5854 51.9452 42.4382 50.4102 43.3336C47.7878 44.8686 45.3787 46.2971 44.6112 48.6636V41.8199H44.5898Z" fill="white"/>
        <path fill-rule="evenodd" clip-rule="evenodd" d="M44.5898 55.1235C44.5898 51.1793 46.4234 48.9194 48.6833 47.363C50.6234 46.0199 56.9128 43.2909 58.0001 39.7092V40.9671V47.1285C58.0001 50.9448 56.0386 53.0981 54.1198 54.3773C53.331 54.889 51.9452 55.7205 50.4102 56.6159C47.7878 58.1509 45.3787 59.5794 44.6112 61.9459V55.1235H44.5898Z" fill="#435EA8"/>
        <path fill-rule="evenodd" clip-rule="evenodd" d="M44.5898 68.4058C44.5898 64.4616 46.4234 62.2017 48.6833 60.6453C50.6234 59.3022 56.9128 56.5732 58.0001 52.9915V54.2494V60.4108C58.0001 64.2271 56.0386 66.3804 54.1198 67.6596C53.331 68.1713 51.9452 69.0027 50.4102 69.8982C47.7878 71.4332 45.3787 72.8616 44.6112 75.2281V68.4058H44.5898Z" fill="#E83D37"/>
        <path fill-rule="evenodd" clip-rule="evenodd" d="M42.8201 41.8199C42.8201 37.8757 40.9866 35.6158 38.7267 34.0594C36.7866 32.7163 30.4972 29.9873 29.4099 26.4056V27.6635V33.8249C29.4099 37.6412 31.3713 39.7945 33.2901 41.0737C34.079 41.5854 35.4648 42.4168 36.9998 43.3123C39.6221 44.8473 42.0313 46.2757 42.7988 48.6422V41.8199H42.8201Z" fill="#D19B3F"/>
        <path fill-rule="evenodd" clip-rule="evenodd" d="M42.8201 75.2281V68.4271C42.8201 64.4829 40.9866 62.223 38.7267 60.6667C36.7866 59.3022 30.4972 56.5732 29.4099 52.9915V54.2494V60.4108C29.4099 64.2271 31.3713 66.3804 33.2901 67.6596C34.079 68.1713 35.4648 69.0241 36.9998 69.9195C39.6435 71.4332 42.0313 72.8616 42.8201 75.2281Z" fill="#D19B3F"/>
        <path fill-rule="evenodd" clip-rule="evenodd" d="M38.7267 47.3417C36.7866 46.0199 30.4972 43.2909 29.4099 39.6879V40.9457V47.1072C29.4099 50.9235 31.3713 53.0768 33.2901 54.356C34.079 54.8676 35.4648 55.7204 36.9998 56.6159C39.6221 58.1509 42.0313 59.5793 42.7988 61.9459V55.1448C42.8201 51.158 40.9866 48.9194 38.7267 47.3417Z" fill="#D19B3F"/>
        <path fill-rule="evenodd" clip-rule="evenodd" d="M49.7487 26.1924C49.7487 21.2888 45.3994 18.7944 43.6939 12.2918C41.9883 18.7944 37.6177 21.2888 37.6177 26.1924C37.6177 31.6716 41.9456 31.2665 43.6939 34.4645C45.4208 31.2452 49.7487 31.6716 49.7487 26.1924Z" fill="#D19B3F"/>
    </g>
    <defs>
        <clipPath id="clip0">
            <rect width="28.59" height="62.9364" fill="white" transform="translate(29.4099 12.2918)"/>
        </clipPath>
    </defs>
</svg>
