
        <svg xmlns="http://www.w3.org/2000/svg" xmlns:xlink="http://www.w3.org/1999/xlink" version="1.1" width="3160.054957433735" height="670.930554370793" viewBox="0 0 3160.054957433735 670.930554370793">
			
			<g transform="scale(8.002747871686763) translate(10, 10)">
				<defs id="SvgjsDefs2208"/><g id="SvgjsG2209" featureKey="nRdZyp-0" transform="matrix(0.7504326232968311,0,0,0.7504326232968311,-2.586657181515404,-5.669796377329206)" fill="#000"><g xmlns="http://www.w3.org/2000/svg"><path d="M3.455,59.074C3.997,31.037,33.352,10.67,65.767,7.953c7.893-0.659,21.247-0.844,31.131,2.25l-9.352,17.253   c-6.528-1.661-14.235-2.134-21.918-1.797c-33.064,1.144-53.872,20.544-54.336,40.159c-0.244,10.416,4.785,20.447,14.77,26.248   l-0.652,0.557C10.918,85.411,3.16,74.064,3.455,59.074z"/><path d="M18.844,65.656c3.279-16.372,21.514-28.878,50.168-27.383c3.968,0.209,8.473,0.598,12.494,1.479l-8.283,15.273   c-2.578-0.354-6.603-1.071-10.058-1.257C40.59,52.587,26.7,61.927,24.396,73.837c-1.237,6.395,1.385,13.541,7.928,18.034   l-0.656,0.504C20.464,86.175,16.835,75.665,18.844,65.656z"/><path d="M32.375,73.946c5.484-9.222,22.011-12.208,36.767-8.624l-4.326,7.93c-11.73-2.699-25.31-0.866-29.202,5.896   c-2.116,3.68-0.936,8.737,1.454,12.306l-0.438,0.441C31.113,86.96,29.106,79.448,32.375,73.946z"/></g></g><g id="SvgjsG2210" featureKey="Q4qmbg-0" transform="matrix(3.54414225166789,0,0,3.54414225166789,92.1646855226742,-12.783949539895147)" fill="#000"><path d="M10.18 14.36 l0 5.64 l-2.96 0 l0 -5.64 c0 -1.5 -0.4 -2.16 -1.56 -2.16 c-1.2 0 -1.9 0.66 -1.9 2.16 l0 5.64 l-2.96 0 l0 -9.88 l2.96 0 l0 0.94 c0.76 -0.74 1.8 -1.08 2.66 -1.08 c2.78 0 3.76 1.34 3.76 4.38 z M21.603895833333333 15.08 l0 0.66 l-7.04 0 c0 1.16 1.18 1.98 2.16 1.98 c0.96 0 1.84 -0.38 2.3 -1.22 l1.98 1.82 c-0.8 1.08 -2.02 1.84 -4.28 1.84 c-3.24 0 -5.22 -2.16 -5.22 -5.08 s1.92 -5.1 5.04 -5.1 s5.06 2.14 5.06 5.1 z M14.623895833333332 13.86 l3.88 0 c-0.16 -0.94 -0.84 -1.44 -1.96 -1.44 c-1.08 0 -1.74 0.58 -1.92 1.44 z M27.507791666666666 12.42 c-1.22 0 -2.24 1.08 -2.24 2.66 c0 1.56 1.02 2.64 2.24 2.64 c1.24 0 2.26 -1.08 2.26 -2.64 c0 -1.58 -1.02 -2.66 -2.26 -2.66 z M27.507791666666666 9.98 c2.9 0 5.22 2.18 5.22 5.1 s-2.32 5.08 -5.22 5.08 c-2.88 0 -5.2 -2.16 -5.2 -5.08 s2.32 -5.1 5.2 -5.1 z M45.335583333333325 5.82 l0 2.34 c-0.42 -0.38 -1.08 -0.4 -1.26 -0.4 c-1.02 0 -1.08 1.08 -1.08 1.9 l0 0.46 l2.34 0 l0 2.44 l-2.34 0 l0 7.44 l-2.96 0 l0 -7.44 l-1.1 0 l0 -2.44 l1.1 0 l0 -0.46 c0 -3.12 1.16 -4.36 3.68 -4.36 c0.6 0 1.16 0.24 1.62 0.52 z M48.919479166666655 13.04 l-2.2 -1.26 c1.1 -1.24 2.58 -1.82 4.12 -1.82 c2.96 0 4.16 1.62 4.16 3.14 l0 6.9 l-2.96 0 l0 -0.7 c-0.46 0.48 -1.28 0.84 -2.2 0.84 c-2.7 0 -3.74 -1.2 -3.74 -3.04 c0 -2.08 1.68 -3.48 4.4 -3.48 l1.54 0 c0 -0.74 -0.56 -1.22 -1.4 -1.22 c-0.86 0 -1.28 0.16 -1.72 0.64 z M52.03947916666666 16.740000000000002 l0 -0.88 l-1.74 0 c-0.78 0 -1.36 0.54 -1.24 1.3 c0.08 0.54 0.56 0.76 1.24 0.76 c1.3 0 1.74 -0.74 1.74 -1.18 z M63.323374999999984 10.26 l-0.4 2.22 c-0.74 -0.32 -0.88 -0.26 -1.22 -0.26 c-1.2 0 -1.9 0.64 -1.9 2.22 l0 5.56 l-2.96 0 l0 -9.88 l2.96 0 l0 0.88 c0.38 -0.68 1.42 -1.02 2.08 -1.02 c0.62 0 0.98 0.02 1.44 0.28 z M79.76727083333331 20 l-2.98 0 l0 -5.64 c0 -1.52 -0.42 -2.16 -1.54 -2.16 c-1.2 0 -1.9 0.64 -1.9 2.16 l0 5.64 l-2.98 0 l0 -5.64 c0 -1.52 -0.4 -2.16 -1.54 -2.16 c-1.2 0 -1.92 0.64 -1.92 2.16 l0 5.64 l-2.96 0 l0 -9.88 l2.96 0 l0 0.9 c0.7 -0.7 1.76 -1.04 2.7 -1.04 c1.4 0 2.3 0.52 2.94 1.34 c0.54 -0.66 1.7 -1.26 3.44 -1.34 c2.78 0 3.78 1.32 3.78 4.38 l0 5.64 z"/></g>
			</g>
		</svg>
	